<?xml version="1.0" ?><svg clip-rule="evenodd" fill-rule="evenodd" image-rendering="optimizeQuality" shape-rendering="geometricPrecision" text-rendering="geometricPrecision" viewBox="0 0 500 500" xmlns="http://www.w3.org/2000/svg"><defs><radialGradient cx="172" cy="321.205" fx="172" fy="321" gradientUnits="userSpaceOnUse" id="a" r="152"><stop offset="0" stop-color="#0af"/><stop offset="1" stop-color="#008BFF"/></radialGradient><radialGradient cx="358" cy="135.625" fx="358" fy="136" gradientUnits="userSpaceOnUse" id="b" r="121"><stop offset="0" stop-color="#0af"/><stop offset="1" stop-color="#008BFF"/></radialGradient><linearGradient gradientUnits="userSpaceOnUse" id="c" x1="95" x2="249" y1="327" y2="327"><stop offset="0" stop-color="#4C4B4C"/><stop offset="1" stop-color="#1D1F1F"/></linearGradient><linearGradient gradientUnits="userSpaceOnUse" id="d" x1="419" x2="298" y1="200" y2="80"><stop offset="0" stop-color="#4C4B4C"/><stop offset="1" stop-color="#1D1F1F"/></linearGradient><linearGradient gradientUnits="userSpaceOnUse" id="e" x1="214" x2="129" y1="327" y2="327"><stop offset="0" stop-color="#4C4B4C"/><stop offset="1" stop-color="#1D1F1F"/></linearGradient><linearGradient gradientUnits="userSpaceOnUse" id="f" x1="391" x2="325" y1="140" y2="140"><stop offset="0" stop-color="#4C4B4C"/><stop offset="1" stop-color="#1D1F1F"/></linearGradient></defs><g><path d="M289 425l-20 19c-3 4-9 4-13 1l-21-17c-3-3-7-4-11-2-6 4-12 6-19 8-4 1-7 5-7 9l-3 27c0 5-4 9-9 9h-28c-5 0-9-4-10-9l-3-27c0-4-3-8-6-9-7-2-13-4-19-8-4-2-8-1-11 2l-21 17c-4 3-10 3-14-1l-19-19c-4-4-4-10-1-14l17-21c3-3 4-7 2-11-4-6-6-12-8-18-1-4-5-7-9-7l-27-3c-5 0-9-5-9-10v-27c0-6 4-10 9-10l27-3c4 0 8-3 9-7 2-6 4-13 8-19 2-3 1-8-1-11l-18-21c-3-4-3-10 1-13l19-20c4-3 10-4 14 0l21 17c3 3 7 3 11 1 6-3 12-6 19-8 3-1 6-4 6-8l3-27c1-6 5-10 10-10h28c5 0 9 4 9 10l3 27c0 4 3 7 7 8 7 2 13 5 19 8 3 2 8 2 11-1l21-17c4-4 10-3 13 0l20 20c3 3 4 9 0 13l-17 21c-3 3-3 8-1 11 3 6 6 13 8 19 1 4 4 7 8 7l27 3c6 0 10 4 10 10v27c0 5-4 10-10 10l-27 3c-4 0-7 3-8 7-2 6-5 12-8 18-2 4-2 8 1 11l17 21c4 4 3 10 0 14zm-117-142c24 0 44 20 44 44 0 25-20 44-44 44-25 0-44-19-44-44 0-24 19-44 44-44z" fill="url(#a)" stroke="#303030" stroke-width="10"/><path d="M472 96l7 26c0 3-1 5-3 6l-25 10c-2 0-3 2-3 4-1 15-4 29-11 42-1 1-1 4 0 5l17 21c2 2 1 4 0 6l-20 20c-1 1-4 2-6 0l-21-17c-1-1-3-2-5-1-13 7-27 11-42 12-2 0-4 1-4 3l-10 25c0 2-3 3-5 3l-27-7c-2-1-4-3-3-6l4-26c0-2-1-4-2-5-13-8-23-18-31-31-1-1-3-2-5-2l-26 5c-2 0-5-2-6-4l-7-26c0-3 1-6 3-6l25-10c2 0 3-2 3-4 1-15 5-29 12-42 1-1 0-4-1-5l-17-21c-1-2-1-4 1-6l19-20c2-1 5-2 7 0l20 17c2 1 4 1 6 0 12-7 26-10 41-11 2 0 4-1 4-3l10-25c1-2 3-3 6-3l26 7c3 1 4 3 4 6l-5 26c0 2 1 4 3 5 12 8 23 18 30 30 1 2 3 3 5 3l26-5c3 0 5 2 6 4zm-113 8c20 0 36 16 36 36 0 21-16 37-36 37-21 0-37-16-37-37 0-20 16-36 37-36z" fill="url(#b)" stroke="#434242" stroke-width="10"/><path d="M172 250c42 0 77 35 77 77 0 43-35 78-77 78-43 0-78-35-78-78 0-42 35-77 78-77zm0 47c16 0 30 14 30 30 0 17-14 30-30 30-17 0-30-13-30-30 0-16 13-30 30-30z" fill="url(#c)"/><path d="M359 80c33 0 60 27 60 60 0 34-27 61-60 61-34 0-61-27-61-61 0-33 27-60 61-60zm0 37c13 0 23 10 23 23s-10 24-23 24-24-11-24-24 11-23 24-23z" fill="url(#d)"/><path d="M172 285c23 0 42 19 42 42 0 24-19 43-42 43-24 0-43-19-43-43 0-23 19-42 43-42zm0 12c16 0 30 14 30 30 0 17-14 30-30 30-17 0-30-13-30-30 0-16 13-30 30-30z" fill="url(#e)"/><path d="M359 107c18 0 33 15 33 33 0 19-15 34-33 34-19 0-33-15-33-34 0-18 14-33 33-33zm0 10c13 0 23 10 23 23s-10 24-23 24-24-11-24-24 11-23 24-23z" fill="url(#f)"/></g></svg>